<mxfile host="app.diagrams.net" agent="Mozilla/5.0 (Windows NT 10.0; Win64; x64) AppleWebKit/537.36 (KHTML, like Gecko) Chrome/131.0.0.0 Safari/537.36" version="25.0.3">
  <diagram name="Trang-1" id="bb-kn_ClovpZq7KBXhAW">
    <mxGraphModel dx="1050" dy="557" grid="1" gridSize="10" guides="1" tooltips="1" connect="1" arrows="1" fold="1" page="1" pageScale="1" pageWidth="827" pageHeight="1169" math="0" shadow="0">
      <root>
        <mxCell id="0" />
        <mxCell id="1" parent="0" />
        <mxCell id="HOpNT_X9topjlZkwBo-i-6" style="edgeStyle=orthogonalEdgeStyle;rounded=0;orthogonalLoop=1;jettySize=auto;html=1;" edge="1" parent="1" source="HOpNT_X9topjlZkwBo-i-2" target="HOpNT_X9topjlZkwBo-i-4">
          <mxGeometry relative="1" as="geometry" />
        </mxCell>
        <mxCell id="HOpNT_X9topjlZkwBo-i-2" value="Start" style="strokeWidth=2;html=1;shape=mxgraph.flowchart.start_1;whiteSpace=wrap;" vertex="1" parent="1">
          <mxGeometry x="355" y="20" width="120" height="60" as="geometry" />
        </mxCell>
        <mxCell id="HOpNT_X9topjlZkwBo-i-8" style="edgeStyle=orthogonalEdgeStyle;rounded=0;orthogonalLoop=1;jettySize=auto;html=1;" edge="1" parent="1" source="HOpNT_X9topjlZkwBo-i-3" target="HOpNT_X9topjlZkwBo-i-5">
          <mxGeometry relative="1" as="geometry" />
        </mxCell>
        <mxCell id="HOpNT_X9topjlZkwBo-i-3" value="num1 num2" style="shape=parallelogram;html=1;strokeWidth=2;perimeter=parallelogramPerimeter;whiteSpace=wrap;rounded=1;arcSize=12;size=0.23;" vertex="1" parent="1">
          <mxGeometry x="350" y="200" width="130" height="60" as="geometry" />
        </mxCell>
        <mxCell id="HOpNT_X9topjlZkwBo-i-7" style="edgeStyle=orthogonalEdgeStyle;rounded=0;orthogonalLoop=1;jettySize=auto;html=1;" edge="1" parent="1" source="HOpNT_X9topjlZkwBo-i-4" target="HOpNT_X9topjlZkwBo-i-3">
          <mxGeometry relative="1" as="geometry" />
        </mxCell>
        <mxCell id="HOpNT_X9topjlZkwBo-i-4" value="num1,num2,total" style="rounded=1;whiteSpace=wrap;html=1;absoluteArcSize=1;arcSize=14;strokeWidth=2;" vertex="1" parent="1">
          <mxGeometry x="355" y="120" width="120" height="50" as="geometry" />
        </mxCell>
        <mxCell id="HOpNT_X9topjlZkwBo-i-13" style="edgeStyle=orthogonalEdgeStyle;rounded=0;orthogonalLoop=1;jettySize=auto;html=1;exitX=0.5;exitY=1;exitDx=0;exitDy=0;entryX=0.5;entryY=0;entryDx=0;entryDy=0;" edge="1" parent="1" source="HOpNT_X9topjlZkwBo-i-5" target="HOpNT_X9topjlZkwBo-i-12">
          <mxGeometry relative="1" as="geometry" />
        </mxCell>
        <mxCell id="HOpNT_X9topjlZkwBo-i-5" value="total = num1 + num2" style="rounded=1;whiteSpace=wrap;html=1;absoluteArcSize=1;arcSize=14;strokeWidth=2;" vertex="1" parent="1">
          <mxGeometry x="355" y="290" width="120" height="50" as="geometry" />
        </mxCell>
        <mxCell id="HOpNT_X9topjlZkwBo-i-9" value="End" style="strokeWidth=2;html=1;shape=mxgraph.flowchart.start_1;whiteSpace=wrap;" vertex="1" parent="1">
          <mxGeometry x="355" y="470" width="120" height="60" as="geometry" />
        </mxCell>
        <mxCell id="HOpNT_X9topjlZkwBo-i-12" value="total" style="shape=parallelogram;html=1;strokeWidth=2;perimeter=parallelogramPerimeter;whiteSpace=wrap;rounded=1;arcSize=12;size=0.23;" vertex="1" parent="1">
          <mxGeometry x="350" y="375" width="130" height="60" as="geometry" />
        </mxCell>
        <mxCell id="HOpNT_X9topjlZkwBo-i-14" style="edgeStyle=orthogonalEdgeStyle;rounded=0;orthogonalLoop=1;jettySize=auto;html=1;entryX=0.5;entryY=0;entryDx=0;entryDy=0;entryPerimeter=0;" edge="1" parent="1" source="HOpNT_X9topjlZkwBo-i-12" target="HOpNT_X9topjlZkwBo-i-9">
          <mxGeometry relative="1" as="geometry" />
        </mxCell>
      </root>
    </mxGraphModel>
  </diagram>
</mxfile>
